<?xml version="1.0" encoding="UTF-8" standalone="no"?>
<!DOCTYPE svg PUBLIC "-//W3C//DTD SVG 1.1//EN" "http://www.w3.org/Graphics/SVG/1.1/DTD/svg11.dtd">
<svg width="100%" height="100%" viewBox="0 0 255 255" version="1.1" xmlns="http://www.w3.org/2000/svg" xmlns:xlink="http://www.w3.org/1999/xlink" xml:space="preserve" xmlns:serif="http://www.serif.com/" style="fill-rule:evenodd;clip-rule:evenodd;stroke-linecap:round;stroke-linejoin:round;stroke-miterlimit:1.5;">
    <g transform="matrix(0.132361,0,0,0.138941,-827.126,-299.153)">
        <path d="M6324.56,2952.11L6623.39,3502.31L7750,3500L7965.68,3330.24L8100,2700L7450,2700L7334.34,2835.67L6405.24,2833.89L6324.56,2952.11Z" style="fill:none;stroke:rgb(0,6,255);stroke-width:78.61px;"/>
    </g>
    <g transform="matrix(0.132361,0,0,0.132361,-827.126,-276.975)">
        <path d="M6547.59,2799.95L6464.79,2679.16L6766.77,2453.48L6911.15,2517.02L7064.56,2435.3L7240,2580" style="fill:none;stroke:rgb(0,6,255);stroke-width:80.59px;"/>
    </g>
    <path d="M223.421,75.998L209.843,56.08L185,45.364L160,45L151.747,51.431L130.354,64.945L120.516,76.364" style="fill:none;stroke:rgb(0,0,255);stroke-width:10.67px;"/>
    <g transform="matrix(0.132361,0,0,0.132361,-827.126,-276.975)">
        <path d="M7460,2560L7520,2523.07L7560,2560" style="fill:none;stroke:rgb(0,6,255);stroke-width:80.59px;"/>
    </g>
    <g transform="matrix(0.132361,0,0,0.132361,-827.126,-276.975)">
        <path d="M7260,2620L7240,2600" style="fill:none;stroke:rgb(0,6,255);stroke-width:80.59px;"/>
    </g>
    <g transform="matrix(0.132361,0,0,0.132361,-827.126,-276.975)">
        <path d="M6860,2500L6840,2540" style="fill:none;stroke:rgb(0,6,255);stroke-width:80.59px;"/>
    </g>
    <g transform="matrix(0.132361,0,0,0.132361,-827.126,-276.975)">
        <path d="M6560,2620L6585.07,2645.04" style="fill:none;stroke:rgb(0,6,255);stroke-width:80.59px;"/>
    </g>
    <g transform="matrix(0.132361,0,0,0.132361,-827.126,-276.975)">
        <path d="M6960,2720L6960,2700" style="fill:none;stroke:rgb(0,6,255);stroke-width:80.59px;"/>
    </g>
    <g transform="matrix(0.132361,0,0,0.132361,-827.126,-276.975)">
        <path d="M7360,2632.52L7340,2645.04" style="fill:none;stroke:rgb(0,6,255);stroke-width:80.59px;"/>
    </g>
    <g transform="matrix(0.132361,0,0,0.132361,-827.126,-276.975)">
        <path d="M7760,2500L7739.09,2525.61" style="fill:none;stroke:rgb(0,6,255);stroke-width:80.59px;"/>
    </g>
    <g transform="matrix(0.132361,0,0,0.132361,-827.126,-276.975)">
        <path d="M7170.57,2636.52L7084.9,2597.8L7025.43,2628.18" style="fill:none;stroke:rgb(0,6,255);stroke-width:80.59px;"/>
    </g>
    <g transform="matrix(0.132361,0,0,0.132361,-827.126,-276.975)">
        <path d="M6727.51,2701.49L6780,2650L6837.41,2682.32" style="fill:none;stroke:rgb(0,6,255);stroke-width:80.59px;"/>
    </g>
</svg>
