<?xml version="1.0" encoding="UTF-8" standalone="no"?>
<!DOCTYPE svg PUBLIC "-//W3C//DTD SVG 1.1//EN" "http://www.w3.org/Graphics/SVG/1.1/DTD/svg11.dtd">
<svg width="100%" height="100%" viewBox="0 0 300 180" version="1.1" xmlns="http://www.w3.org/2000/svg" xmlns:xlink="http://www.w3.org/1999/xlink" xml:space="preserve" xmlns:serif="http://www.serif.com/" style="fill-rule:evenodd;clip-rule:evenodd;stroke-linecap:round;stroke-linejoin:round;stroke-miterlimit:1.5;">
    <g transform="matrix(1,0,0,1,-1,-1)">
        <rect x="26" y="112" width="75" height="21" style="fill:rgb(0,0,255);fill-opacity:0.15;stroke:rgb(0,0,255);stroke-width:2px;"/>
    </g>
    <g transform="matrix(1,0,0,1,-2,0)">
        <rect x="27" y="36" width="248" height="20" style="fill-opacity:0.17;stroke:black;stroke-width:2px;"/>
    </g>
    <g transform="matrix(1,0,0,1,5,-6)">
        <path d="M20,15L20,168" style="fill:none;stroke:black;stroke-width:2px;"/>
    </g>
    <g transform="matrix(1,0,0,1,31.4372,73.1835)">
        <text x="0px" y="0px" style="font-family:'Helvetica';font-size:12px;">Neues Fenster</text>
    </g>
    <g transform="matrix(1,0,0,1,32.0758,148.198)">
        <text x="0px" y="0px" style="font-family:'Helvetica';font-size:12px;">Wiederverwendetes Fenster</text>
    </g>
    <g transform="matrix(1,0,0,1,103.713,50.3456)">
        <g>
            <text x="0px" y="0px" style="font-family:'Helvetica';font-size:12px;">300-500kg CO</text>
            <text x="78.047px" y="0px" style="font-family:'Helvetica';font-size:8px;">2</text>
        </g>
    </g>
    <g transform="matrix(1,0,0,1,35.4684,125.346)">
        <g>
            <text x="0px" y="0px" style="font-family:'Helvetica';font-size:12px;fill:rgb(0,0,255);">60kg CO</text>
            <text x="47.355px" y="0px" style="font-family:'Helvetica';font-size:8px;fill:rgb(0,0,255);">2</text>
        </g>
    </g>
</svg>
