<svg xmlns="http://www.w3.org/2000/svg" xml:space="preserve" style="fill-rule:evenodd;clip-rule:evenodd;stroke-linecap:round;stroke-linejoin:round;stroke-miterlimit:1.5" viewBox="0 0 600 600"><path d="m100 260 300-160 300 160v440H100V260Z" style="fill:none;stroke:#00f;stroke-width:31.25px" transform="matrix(.13335 0 0 .13335 25.836 23.232)"/><path d="M240 340h329.578v360H240z" style="fill:none;stroke:#00f;stroke-width:83.01px" transform="matrix(.0526 0 0 .04767 42.018 58.762)"/><path d="m100 260 300-160 300 160v440H100V260Z" style="fill:none;stroke:#00f;stroke-width:31.25px" transform="matrix(.13335 0 0 .13335 97.384 314.284)"/><path d="M240 340h329.578v360H240z" style="fill:none;stroke:#00f;stroke-width:83.01px" transform="matrix(.0526 0 0 .04767 113.566 349.814)"/><path d="M240 340h329.578v360H240z" style="fill:none;stroke:#00f;stroke-width:83.01px" transform="matrix(.0526 0 0 .04767 146.853 349.527)"/><path d="M46.012 35.225h162.607v184.541H46.012z" style="fill:none;stroke:#00f;stroke-width:16.94px" transform="matrix(.1845 0 0 .1845 76.8 423.994)"/><path d="m46.012 127.434 159.862.418" style="fill:none;stroke:#00f;stroke-width:11.22px" transform="matrix(.1869 0 0 .1845 76.688 423.994)"/><path d="M127.214 218.59V35.218" style="fill:none;stroke:#00f;stroke-width:11.29px" transform="matrix(.1845 0 0 .1845 76.8 423.994)"/><path d="M46.012 35.225h162.607v184.541H46.012z" style="fill:none;stroke:#00f;stroke-width:16.94px" transform="matrix(.1845 0 0 .1845 76.8 423.994)"/><path d="M46.012 35.225h162.607v184.541H46.012z" style="fill:none;stroke:#00f;stroke-width:16.94px" transform="matrix(.1845 0 0 .1845 123.8 440.619)"/><path d="m46.012 127.434 159.862.418" style="fill:none;stroke:#00f;stroke-width:11.22px" transform="matrix(.1869 0 0 .1845 123.688 440.619)"/><path d="M127.214 218.59V35.218" style="fill:none;stroke:#00f;stroke-width:11.29px" transform="matrix(.1845 0 0 .1845 123.8 440.619)"/><path d="M46.012 35.225h162.607v184.541H46.012z" style="fill:none;stroke:#00f;stroke-width:16.94px" transform="matrix(.1845 0 0 .1845 123.8 440.619)"/><path d="M46.012 35.225h162.607v184.541H46.012z" style="fill:none;stroke:#00f;stroke-width:16.94px" transform="matrix(.1845 0 0 .1845 172.792 423.525)"/><path d="m46.012 127.434 159.862.418" style="fill:none;stroke:#00f;stroke-width:11.22px" transform="matrix(.1869 0 0 .1845 172.68 423.525)"/><path d="M127.214 218.59V35.218" style="fill:none;stroke:#00f;stroke-width:11.29px" transform="matrix(.1845 0 0 .1845 172.792 423.525)"/><path d="M46.012 35.225h162.607v184.541H46.012z" style="fill:none;stroke:#00f;stroke-width:16.94px" transform="matrix(.1845 0 0 .1845 172.792 423.525)"/><path d="M46.012 35.225h162.607v184.541H46.012z" style="fill:none;stroke:#00f;stroke-width:16.94px" transform="matrix(.1845 0 0 .1845 187.27 475.045)"/><path d="m46.012 127.434 159.862.418" style="fill:none;stroke:#00f;stroke-width:11.22px" transform="matrix(.1869 0 0 .1845 187.157 475.045)"/><path d="M127.214 218.59V35.218" style="fill:none;stroke:#00f;stroke-width:11.29px" transform="matrix(.1845 0 0 .1845 187.27 475.045)"/><path d="M46.012 35.225h162.607v184.541H46.012z" style="fill:none;stroke:#00f;stroke-width:16.94px" transform="matrix(.1845 0 0 .1845 187.27 475.045)"/><path d="m100 260 300-160 300 160v440H100V260Z" style="fill:none;stroke:#00f;stroke-width:31.25px" transform="matrix(.13335 0 0 .13335 196.89 41.74)"/><path d="M240 340h329.578v360H240z" style="fill:none;stroke:#00f;stroke-width:30.82px" transform="matrix(.13699 0 0 .13335 194.819 41.74)"/><path d="M460 600H328.825" style="fill:none;stroke:#00f;stroke-width:31.25px" transform="matrix(.13335 0 0 .13335 196.89 41.74)"/><path d="M460 600H328.825" style="fill:none;stroke:#00f;stroke-width:31.25px" transform="matrix(.13335 0 0 .13335 197.635 24.232)"/><path d="m471.005 166.127 211.062-2.177L740 308.367" style="fill:none;stroke:#00f;stroke-width:49.11px" transform="matrix(.08484 0 0 .08484 505.239 257.539)"/><circle cx="200" cy="620" r="80" style="fill:none;stroke:#00f;stroke-width:49.11px" transform="matrix(.08484 0 0 .08484 440.584 257.224)"/><circle cx="200" cy="620" r="80" style="fill:none;stroke:#00f;stroke-width:49.11px" transform="matrix(.08484 0 0 .08484 461.26 257.539)"/><circle cx="200" cy="620" r="80" style="fill:none;stroke:#00f;stroke-width:49.11px" transform="matrix(.08484 0 0 .08484 539.964 257.539)"/><path d="M535.272 590.668h-64.267V308.367H740v282.301h-55.842C672.446 561.006 643.515 540 609.715 540c-33.799 0-62.731 21.006-74.443 50.668Z" style="fill:none;stroke:#00f;stroke-width:49.11px" transform="matrix(.08484 0 0 .08484 505.239 257.539)"/><path d="M65.642 213.303H51.576C49.942 208.477 45.374 205 40 205c-5.374 0-9.942 3.477-11.576 8.303H15V140h182.767v73.303H88.793C87.16 208.477 82.591 205 77.217 205c-5.374 0-9.942 3.477-11.575 8.303Z" style="fill:none;stroke:#00f;stroke-width:7.5px" transform="matrix(.55555 0 0 .55555 435.33 189.151)"/><path d="m403.734 313.308 6.136 2.509-2.508 6.136" style="fill:none;stroke:#00f;stroke-width:3.13px;stroke-linejoin:miter;stroke-miterlimit:10"/><path d="m244.686 385.138 165.184-69.321" style="fill:none;stroke:#00f;stroke-width:3.13px;stroke-dasharray:6.25,6.25,0,0"/><path d="m413.506 244.443.251 6.625-6.625.25" style="fill:none;stroke:#00f;stroke-width:3.13px;stroke-linejoin:miter;stroke-miterlimit:10"/><path d="m302.665 148.074 111.092 102.994" style="fill:none;stroke:#00f;stroke-width:3.13px;stroke-dasharray:6.25,6.25,0,0"/><path d="m181.414 94.187 4.735 4.639-4.639 4.736" style="fill:none;stroke:#00f;stroke-width:3.13px;stroke-linejoin:miter;stroke-miterlimit:10"/><path d="m138.528 99.317 47.621-.491" style="fill:none;stroke:#00f;stroke-width:3.13px;stroke-dasharray:6.25,6.25,0,0"/><text x="39.875" y="228.199" style="font-family:&quot;ArialMT&quot;,&quot;Arial&quot;,sans-serif;font-size:22.917px" transform="translate(-12.478 4.762)">Private Spender</text><text x="39.875" y="228.199" style="font-family:&quot;ArialMT&quot;,&quot;Arial&quot;,sans-serif;font-size:22.917px" transform="translate(11.207 323.32)">Institutionelle Spender</text><text x="39.875" y="228.199" style="font-family:&quot;ArialMT&quot;,&quot;Arial&quot;,sans-serif;font-size:22.917px" transform="translate(272.123 -120.843)">Zwischenlager</text><path d="M46.012 35.225h162.607v184.541H46.012z" style="fill:none;stroke:#00f;stroke-width:16.94px" transform="matrix(.1845 0 0 .1845 39.894 130.775)"/><path d="m46.012 127.434 159.862.418" style="fill:none;stroke:#00f;stroke-width:11.22px" transform="matrix(.1869 0 0 .1845 39.782 130.775)"/><path d="M127.214 218.59V35.218" style="fill:none;stroke:#00f;stroke-width:11.29px" transform="matrix(.1845 0 0 .1845 39.894 130.775)"/><path d="M46.012 35.225h162.607v184.541H46.012z" style="fill:none;stroke:#00f;stroke-width:16.94px" transform="matrix(.1845 0 0 .1845 39.894 130.775)"/><path d="M46.012 35.225h162.607v184.541H46.012z" style="fill:none;stroke:#00f;stroke-width:16.94px" transform="matrix(.1845 0 0 .1845 84.26 145.025)"/><path d="m46.012 127.434 159.862.418" style="fill:none;stroke:#00f;stroke-width:11.22px" transform="matrix(.1869 0 0 .1845 84.15 145.025)"/><path d="M127.214 218.59V35.218" style="fill:none;stroke:#00f;stroke-width:11.29px" transform="matrix(.1845 0 0 .1845 84.26 145.025)"/><path d="M46.012 35.225h162.607v184.541H46.012z" style="fill:none;stroke:#00f;stroke-width:16.94px" transform="matrix(.1845 0 0 .1845 84.26 145.025)"/></svg>