<svg xmlns="http://www.w3.org/2000/svg" xml:space="preserve" style="fill-rule:evenodd;clip-rule:evenodd;stroke-linecap:round;stroke-linejoin:round;stroke-miterlimit:1.5" viewBox="0 0 600 600"><path d="m100 260 300-160 300 160v440H100V260Z" style="fill:none;stroke:#00f;stroke-width:31.25px" transform="matrix(.13335 0 0 .13335 433.789 49.056)"/><path d="M240 340h329.578v360H240z" style="fill:none;stroke:#00f;stroke-width:83.01px" transform="matrix(.0526 0 0 .04767 449.971 84.586)"/><path d="m100 260 300-160 300 160v440H100V260Z" style="fill:none;stroke:#00f;stroke-width:31.25px" transform="matrix(.13335 0 0 .13335 469.958 343.659)"/><path d="M240 340h329.578v360H240z" style="fill:none;stroke:#00f;stroke-width:83.01px" transform="matrix(.0526 0 0 .04767 486.14 379.189)"/><path d="M240 340h329.578v360H240z" style="fill:none;stroke:#00f;stroke-width:83.01px" transform="matrix(.0526 0 0 .04767 519.427 378.902)"/><path d="M46.012 35.225h162.607v184.541H46.012z" style="fill:none;stroke:#00f;stroke-width:16.94px" transform="matrix(.1845 0 0 .1845 460.468 453.756)"/><path d="m46.012 127.434 159.862.418" style="fill:none;stroke:#00f;stroke-width:11.22px" transform="matrix(.1869 0 0 .1845 460.356 453.756)"/><path d="M127.214 218.59V35.218" style="fill:none;stroke:#00f;stroke-width:11.29px" transform="matrix(.1845 0 0 .1845 460.468 453.756)"/><path d="M46.012 35.225h162.607v184.541H46.012z" style="fill:none;stroke:#00f;stroke-width:16.94px" transform="matrix(.1845 0 0 .1845 460.468 453.756)"/><path d="M46.012 35.225h162.607v184.541H46.012z" style="fill:none;stroke:#00f;stroke-width:16.94px" transform="matrix(.1845 0 0 .1845 507.468 470.381)"/><path d="m46.012 127.434 159.862.418" style="fill:none;stroke:#00f;stroke-width:11.22px" transform="matrix(.1869 0 0 .1845 507.356 470.381)"/><path d="M127.214 218.59V35.218" style="fill:none;stroke:#00f;stroke-width:11.29px" transform="matrix(.1845 0 0 .1845 507.468 470.381)"/><path d="M46.012 35.225h162.607v184.541H46.012z" style="fill:none;stroke:#00f;stroke-width:16.94px" transform="matrix(.1845 0 0 .1845 507.468 470.381)"/><path d="m100 260 300-160 300 160v440H100V260Z" style="fill:none;stroke:#00f;stroke-width:31.25px" transform="matrix(.13335 0 0 .13335 242.988 237.599)"/><path d="M240 340h329.578v360H240z" style="fill:none;stroke:#00f;stroke-width:30.82px" transform="matrix(.13699 0 0 .13335 240.916 237.599)"/><path d="M460 600H328.825" style="fill:none;stroke:#00f;stroke-width:31.25px" transform="matrix(.13335 0 0 .13335 242.988 237.599)"/><path d="M460 600H328.825" style="fill:none;stroke:#00f;stroke-width:31.25px" transform="matrix(.13335 0 0 .13335 243.733 220.091)"/><path d="m471.005 166.127 211.062-2.177L740 308.367" style="fill:none;stroke:#00f;stroke-width:49.11px" transform="matrix(.08484 0 0 .08484 102.798 266.003)"/><circle cx="200" cy="620" r="80" style="fill:none;stroke:#00f;stroke-width:49.11px" transform="matrix(.08484 0 0 .08484 38.142 265.689)"/><circle cx="200" cy="620" r="80" style="fill:none;stroke:#00f;stroke-width:49.11px" transform="matrix(.08484 0 0 .08484 58.818 266.003)"/><circle cx="200" cy="620" r="80" style="fill:none;stroke:#00f;stroke-width:49.11px" transform="matrix(.08484 0 0 .08484 137.522 266.003)"/><path d="M535.272 590.668h-64.267V308.367H740v282.301h-55.842C672.446 561.006 643.515 540 609.715 540c-33.799 0-62.731 21.006-74.443 50.668Z" style="fill:none;stroke:#00f;stroke-width:49.11px" transform="matrix(.08484 0 0 .08484 102.798 266.003)"/><path d="M65.642 213.303H51.576C49.942 208.477 45.374 205 40 205c-5.374 0-9.942 3.477-11.576 8.303H15V140h182.767v73.303H88.793C87.16 208.477 82.591 205 77.217 205c-5.374 0-9.942 3.477-11.575 8.303Z" style="fill:none;stroke:#00f;stroke-width:7.5px" transform="matrix(.55555 0 0 .55555 32.889 197.616)"/><path d="m454.392 380.958 1.987 6.325-6.325 1.986" style="fill:none;stroke:#00f;stroke-width:3.13px;stroke-linejoin:miter;stroke-miterlimit:10"/><path d="m360.031 336.987 96.348 50.296" style="fill:none;stroke:#00f;stroke-width:3.13px;stroke-dasharray:6.25,6.25,0,0"/><path d="m414.136 165.609 6.628.133-.132 6.627" style="fill:none;stroke:#00f;stroke-width:3.13px;stroke-linejoin:miter;stroke-miterlimit:10"/><path d="m341.602 241.804 79.162-76.062" style="fill:none;stroke:#00f;stroke-width:3.13px;stroke-dasharray:6.25,6.25,0,0"/><path d="m230.238 290.941 4.735 4.639-4.639 4.736" style="fill:none;stroke:#00f;stroke-width:3.13px;stroke-linejoin:miter;stroke-miterlimit:10"/><path d="m187.352 296.071 47.621-.491" style="fill:none;stroke:#00f;stroke-width:3.13px;stroke-dasharray:6.25,6.25,0,0"/><text x="47.886" y="228.199" style="font-family:&quot;ArialMT&quot;,&quot;Arial&quot;,sans-serif;font-size:22.917px" transform="translate(193.994 155.353)">V<tspan x="61.907px 74.652px" y="228.199px 228.199px">er</tspan>teillager</text><path d="M46.012 35.225h162.607v184.541H46.012z" style="fill:none;stroke:#00f;stroke-width:16.94px" transform="matrix(.1845 0 0 .1845 447.847 156.6)"/><path d="m46.012 127.434 159.862.418" style="fill:none;stroke:#00f;stroke-width:11.22px" transform="matrix(.1869 0 0 .1845 447.735 156.6)"/><path d="M127.214 218.59V35.218" style="fill:none;stroke:#00f;stroke-width:11.29px" transform="matrix(.1845 0 0 .1845 447.847 156.6)"/><path d="M46.012 35.225h162.607v184.541H46.012z" style="fill:none;stroke:#00f;stroke-width:16.94px" transform="matrix(.1845 0 0 .1845 447.847 156.6)"/></svg>