<?xml version="1.0" encoding="UTF-8" standalone="no"?>
<!DOCTYPE svg PUBLIC "-//W3C//DTD SVG 1.1//EN" "http://www.w3.org/Graphics/SVG/1.1/DTD/svg11.dtd">
<svg width="100%" height="100%" viewBox="0 0 300 180" version="1.1" xmlns="http://www.w3.org/2000/svg" xmlns:xlink="http://www.w3.org/1999/xlink" xml:space="preserve" xmlns:serif="http://www.serif.com/" style="fill-rule:evenodd;clip-rule:evenodd;stroke-linecap:round;stroke-linejoin:round;stroke-miterlimit:1.5;">
    <g transform="matrix(0.489611,0,0,0.489611,9.85783,3.75688)">
        <rect x="46.012" y="35.225" width="162.607" height="184.541" style="fill:none;stroke:rgb(0,0,255);stroke-width:10.21px;"/>
    </g>
    <g transform="matrix(0.49598,0,0,0.489611,9.56061,3.75688)">
        <path d="M46.012,127.434L205.874,127.852" style="fill:none;stroke:rgb(0,0,255);stroke-width:6.09px;"/>
    </g>
    <g transform="matrix(0.489611,0,0,0.489611,9.85783,3.75688)">
        <path d="M127.214,218.59L127.214,35.218" style="fill:none;stroke:rgb(0,0,255);stroke-width:6.13px;"/>
    </g>
    <g transform="matrix(0.489611,0,0,0.489611,9.85783,3.75688)">
        <rect x="46.012" y="35.225" width="162.607" height="184.541" style="fill:none;stroke:rgb(0,0,255);stroke-width:1.02px;"/>
    </g>
    <g transform="matrix(0.489611,0,0,0.489611,152.476,50.5785)">
        <rect x="46.012" y="35.225" width="162.607" height="184.541" style="fill:none;stroke:black;stroke-width:10.21px;"/>
    </g>
    <g transform="matrix(0.49598,0,0,0.489611,152.179,50.5785)">
        <path d="M46.012,127.434L205.874,127.852" style="fill:none;stroke:black;stroke-width:6.09px;"/>
    </g>
    <g transform="matrix(0.489611,0,0,0.489611,152.476,50.5785)">
        <path d="M127.214,218.59L127.214,35.218" style="fill:none;stroke:black;stroke-width:6.13px;"/>
    </g>
    <path d="M186,82L192,87L191,92L184,98" style="fill:none;stroke:black;stroke-width:3px;"/>
    <path d="M207,86L199,87L192,87" style="fill:none;stroke:black;stroke-width:3px;"/>
    <path d="M186.028,49.711L183.991,56.03L177.671,53.993" style="fill:none;stroke:rgb(0,0,255);stroke-width:3.13px;stroke-linejoin:miter;stroke-miterlimit:10;"/>
    <path d="M126,41C174.745,41.025 175.374,39.284 183.991,56.03" style="fill:none;stroke:rgb(0,0,255);stroke-width:3.13px;"/>
    <path d="M206,103L203,96L198,92L197,88" style="fill:none;stroke:black;stroke-width:3px;"/>
    <path d="M201,86.5L202,79" style="fill:none;stroke:black;stroke-width:3px;"/>
    <path d="M201,95L197,100" style="fill:none;stroke:black;stroke-width:3px;"/>
    <path d="M191,93L198,92" style="fill:none;stroke:black;stroke-width:3px;"/>
</svg>
