<?xml version="1.0" encoding="UTF-8" standalone="no"?><!DOCTYPE svg PUBLIC "-//W3C//DTD SVG 1.1//EN" "http://www.w3.org/Graphics/SVG/1.1/DTD/svg11.dtd"><svg width="100%" height="100%" viewBox="0 0 256 128" version="1.1" xmlns="http://www.w3.org/2000/svg" xmlns:xlink="http://www.w3.org/1999/xlink" xml:space="preserve" xmlns:serif="http://www.serif.com/" style="fill-rule:evenodd;clip-rule:evenodd;stroke-linecap:round;stroke-linejoin:round;stroke-miterlimit:1.5;"><g><path d="M196.92,29.469l32.233,-0.333l8.848,22.055" style="fill:none;stroke:#00f;stroke-width:8px;"/></g><g><circle cx="39.153" cy="98.218" r="12.217" style="fill:none;stroke:#00f;stroke-width:8px;"/></g><g><circle cx="76.37" cy="98.783" r="12.217" style="fill:none;stroke:#00f;stroke-width:8px;"/></g><g><circle cx="218.037" cy="98.783" r="12.217" style="fill:none;stroke:#00f;stroke-width:8px;"/></g><g><path d="M206.735,94.303l-9.815,0l0,-43.112l41.081,0l-0,43.112l-8.528,0c-1.789,-4.529 -6.207,-7.737 -11.369,-7.737c-5.162,-0 -9.58,3.208 -11.369,7.737Z" style="fill:none;stroke:#00f;stroke-width:8px;"/></g><g><path d="M64.795,94.303l-14.066,0c-1.634,-4.826 -6.202,-8.303 -11.576,-8.303c-5.374,0 -9.942,3.477 -11.576,8.303l-13.424,0l-0,-73.303l182.767,0l-0,73.303l-108.974,0c-1.633,-4.826 -6.202,-8.303 -11.576,-8.303c-5.374,0 -9.942,3.477 -11.575,8.303Z" style="fill:none;stroke:#00f;stroke-width:8px;"/></g></svg>